<svg width="76" height="76" viewBox="0 0 76 76" fill="none" xmlns="http://www.w3.org/2000/svg">
<g filter="url(#filter0_ddd_3897_26284)">
<circle cx="38" cy="37" r="20" transform="rotate(-180 38 37)" fill="white"/>
</g>
<path fill-rule="evenodd" clip-rule="evenodd" d="M41.1235 29C40.8865 29 40.6505 29.1003 40.4775 29.2976L34.2295 36.4369C33.9235 36.7868 33.9235 37.3255 34.2295 37.6754L40.3795 44.7016C40.7065 45.0761 41.2595 45.1017 41.6175 44.7582C41.9745 44.4168 41.9985 43.8366 41.6715 43.4632L36.0645 37.0567L41.7695 30.5371C42.0965 30.1627 42.0725 29.5835 41.7155 29.2411C41.5475 29.08 41.3355 29 41.1235 29Z" fill="#00754A"/>
<g filter="url(#filter1_ddd_3897_26284)">
<circle cx="38" cy="37" r="20" transform="rotate(-180 38 37)" fill="white"/>
</g>
<path fill-rule="evenodd" clip-rule="evenodd" d="M37.1235 29C36.8865 29 36.6505 29.1003 36.4775 29.2976L30.2295 36.4369C29.9235 36.7868 29.9235 37.3255 30.2295 37.6754L36.3795 44.7016C36.7065 45.0761 37.2595 45.1017 37.6175 44.7582C37.9745 44.4168 37.9985 43.8366 37.6715 43.4632L32.0645 37.0567L37.7695 30.5371C38.0965 30.1627 38.0725 29.5835 37.7155 29.2411C37.5475 29.08 37.3355 29 37.1235 29Z" fill="#00754A"/>
<path d="M31 37L46 37" stroke="#00754A" stroke-width="2" stroke-linecap="round"/>
<defs>
<filter id="filter0_ddd_3897_26284" x="0" y="0" width="76" height="76" filterUnits="userSpaceOnUse" color-interpolation-filters="sRGB">
<feFlood flood-opacity="0" result="BackgroundImageFix"/>
<feColorMatrix in="SourceAlpha" type="matrix" values="0 0 0 0 0 0 0 0 0 0 0 0 0 0 0 0 0 0 127 0" result="hardAlpha"/>
<feOffset dy="3"/>
<feGaussianBlur stdDeviation="2.5"/>
<feColorMatrix type="matrix" values="0 0 0 0 0 0 0 0 0 0 0 0 0 0 0 0 0 0 0.1 0"/>
<feBlend mode="normal" in2="BackgroundImageFix" result="effect1_dropShadow_3897_26284"/>
<feColorMatrix in="SourceAlpha" type="matrix" values="0 0 0 0 0 0 0 0 0 0 0 0 0 0 0 0 0 0 127 0" result="hardAlpha"/>
<feOffset dy="1"/>
<feGaussianBlur stdDeviation="9"/>
<feColorMatrix type="matrix" values="0 0 0 0 0 0 0 0 0 0 0 0 0 0 0 0 0 0 0.06 0"/>
<feBlend mode="normal" in2="effect1_dropShadow_3897_26284" result="effect2_dropShadow_3897_26284"/>
<feColorMatrix in="SourceAlpha" type="matrix" values="0 0 0 0 0 0 0 0 0 0 0 0 0 0 0 0 0 0 127 0" result="hardAlpha"/>
<feOffset dy="6"/>
<feGaussianBlur stdDeviation="5"/>
<feColorMatrix type="matrix" values="0 0 0 0 0 0 0 0 0 0 0 0 0 0 0 0 0 0 0.07 0"/>
<feBlend mode="normal" in2="effect2_dropShadow_3897_26284" result="effect3_dropShadow_3897_26284"/>
<feBlend mode="normal" in="SourceGraphic" in2="effect3_dropShadow_3897_26284" result="shape"/>
</filter>
<filter id="filter1_ddd_3897_26284" x="0" y="0" width="76" height="76" filterUnits="userSpaceOnUse" color-interpolation-filters="sRGB">
<feFlood flood-opacity="0" result="BackgroundImageFix"/>
<feColorMatrix in="SourceAlpha" type="matrix" values="0 0 0 0 0 0 0 0 0 0 0 0 0 0 0 0 0 0 127 0" result="hardAlpha"/>
<feOffset dy="3"/>
<feGaussianBlur stdDeviation="2.5"/>
<feColorMatrix type="matrix" values="0 0 0 0 0 0 0 0 0 0 0 0 0 0 0 0 0 0 0.1 0"/>
<feBlend mode="normal" in2="BackgroundImageFix" result="effect1_dropShadow_3897_26284"/>
<feColorMatrix in="SourceAlpha" type="matrix" values="0 0 0 0 0 0 0 0 0 0 0 0 0 0 0 0 0 0 127 0" result="hardAlpha"/>
<feOffset dy="1"/>
<feGaussianBlur stdDeviation="9"/>
<feColorMatrix type="matrix" values="0 0 0 0 0 0 0 0 0 0 0 0 0 0 0 0 0 0 0.06 0"/>
<feBlend mode="normal" in2="effect1_dropShadow_3897_26284" result="effect2_dropShadow_3897_26284"/>
<feColorMatrix in="SourceAlpha" type="matrix" values="0 0 0 0 0 0 0 0 0 0 0 0 0 0 0 0 0 0 127 0" result="hardAlpha"/>
<feOffset dy="6"/>
<feGaussianBlur stdDeviation="5"/>
<feColorMatrix type="matrix" values="0 0 0 0 0 0 0 0 0 0 0 0 0 0 0 0 0 0 0.07 0"/>
<feBlend mode="normal" in2="effect2_dropShadow_3897_26284" result="effect3_dropShadow_3897_26284"/>
<feBlend mode="normal" in="SourceGraphic" in2="effect3_dropShadow_3897_26284" result="shape"/>
</filter>
</defs>
</svg>
